#!OML:ASF F:\VICON\USERDATA\INSTALL\rory3\rory3.ASF
:FULLY-SPECIFIED
:DEGREES
397
root 1.29704 18.0064 -2.04379 -5.05524 2.14421 1.7726
lowerback 25.7156 0.375893 0.63858
upperback 5.00939 1.19504 5.10724
thorax -8.82784 0.61812 4.93925
lowerneck -13.8162 -2.70777 -3.77467
upperneck 9.09456 -2.79923 -0.964004
head 5.02732 -1.57261 0.0745471
rclavicle -1.19271e-015 2.54444e-014
rhumerus -48.55 -36.7077 -40.7487
rradius 80.7611
rwrist -54.2006
rhand 11.3259 -3.62055
rfingers 7.12502
rthumb 36.3828 -29.8421
lclavicle -1.19271e-015 2.54444e-014
lhumerus -59.397 20.3195 66.2438
lradius 36.9337
lwrist 11.3248
lhand -8.33727 50.9071
lfingers 7.12502
lthumb 17.5843 80.1319
rfemur -21.1626 -5.47105 21.4165
rtibia 36.3195
rfoot -6.80703 -10.9239
rtoes 20.3118
lfemur -1.90749 -0.392239 -18.2066
ltibia 50.5061
lfoot 5.76724 -17.5133
ltoes -25.2069
398
root 1.31061 17.997 -2.19632 -5.29647 2.27777 2.1846
lowerback 25.4546 0.317672 0.167713
upperback 4.82288 0.978397 4.94005
thorax -8.88854 0.528954 5.09521
lowerneck -12.927 -2.70243 -3.90312
upperneck 9.10945 -2.81639 -0.923346
head 4.88928 -1.58148 0.11829
rclavicle 2.38542e-015 2.54444e-014
rhumerus -49.0937 -36.1506 -40.0836
rradius 82.8371
rwrist -54.6157
rhand 12.363 -3.22664
rfingers 7.12502
rthumb 37.364 -29.1961
lclavicle 2.38542e-015 2.54444e-014
lhumerus -59.5036 19.9584 66.2509
lradius 37.4301
lwrist 11.4796
lhand -8.68212 51.4821
lfingers 7.12502
lthumb 17.2524 80.7363
rfemur -21.281 -5.92235 20.8915
rtibia 36.0541
rfoot -6.28397 -10.4842
rtoes 20.8755
lfemur -0.325895 -0.395051 -18.985
ltibia 49.6493
lfoot 7.45699 -18.212
ltoes -24.1392
399
root 1.32704 17.9739 -2.3566 -5.51968 2.27515 2.17522
lowerback 25.3172 0.243419 0.0653921
upperback 4.57194 0.855791 4.87954
thorax -9.08883 0.478772 5.13014
lowerneck -12.4224 -2.60192 -3.76135
upperneck 9.45634 -2.70131 -1.12829
head 4.9082 -1.53742 0.0452031
rclavicle -5.56597e-015 -1.59028e-014
rhumerus -49.6506 -35.6202 -39.3394
rradius 85.0097
rwrist -55.0616
rhand 13.0801 -3.23575
rfingers 7.12502
rthumb 38.0415 -29.0237
lclavicle -5.56597e-015 -1.59028e-014
lhumerus -59.6803 19.3641 66.5037
lradius 38.351
lwrist 11.841
lhand -9.02982 52.1692
lfingers 7.12502
lthumb 16.9177 81.4524
rfemur -21.4874 -6.03817 20.8278
rtibia 35.7976
rfoot -5.68433 -10.2551
rtoes 21.1919
lfemur 1.12522 -0.344615 -19.3034
ltibia 48.7789
lfoot 9.07644 -18.8617
ltoes -22.7436
400
root 1.33739 17.9425 -2.52843 -5.74848 2.10814 1.96703
lowerback 25.2376 0.234935 -0.0171319
upperback 4.39609 0.835602 4.95338
thorax -9.24583 0.477273 5.27187
lowerneck -12.6211 -2.44414 -3.99523
upperneck 10.2104 -2.44365 -0.978745
head 5.17839 -1.42107 0.141983
rclavicle 7.55382e-015 -1.59028e-015
rhumerus -49.821 -35.1323 -38.7553
rradius 87.2769
rwrist -55.2249
rhand 13.3779 -3.2385
rfingers 7.12502
rthumb 38.3226 -28.9492
lclavicle 7.55382e-015 -1.59028e-015
lhumerus -59.7169 18.8891 66.8753
lradius 39.4074
lwrist 12.3208
lhand -9.27167 52.9095
lfingers 7.12502
lthumb 16.6849 82.2125
rfemur -21.8666 -5.82095 21.051
rtibia 35.632
rfoot -5.07206 -10.2342
rtoes 20.9297
lfemur 2.463 -0.16178 -19.3228
ltibia 47.8068
lfoot 10.9241 -19.4602
ltoes -20.5511
401
root 1.35083 17.9124 -2.70484 -5.98246 2.22029 1.99077
lowerback 25.1222 0.148521 -0.164493
upperback 4.32053 0.677118 4.8818
thorax -9.25628 0.406845 5.32793
lowerneck -12.3334 -2.39289 -3.49545
upperneck 10.0008 -2.42931 -1.39326
head 5.05328 -1.41955 -0.0612206
rclavicle 7.95139e-016 1.27222e-014
rhumerus -49.6735 -34.9193 -38.5203
rradius 89.5945
rwrist -55.1024
rhand 13.4653 -3.22931
rfingers 7.12502
rthumb 38.4051 -28.9172
lclavicle 7.95139e-016 1.27222e-014
lhumerus -59.4465 18.6573 66.9993
lradius 40.0709
lwrist 12.3824
lhand -9.5732 52.2205
lfingers 7.12502
lthumb 16.3946 81.5476
rfemur -22.2926 -5.97395 20.952
rtibia 35.5561
rfoot -4.33172 -10.1256
rtoes 20.9192
lfemur 3.68687 -0.407677 -19.7503
ltibia 46.8143
lfoot 12.9362 -19.8018
ltoes -17.9075
402
root 1.37035 17.8799 -2.88801 -6.04717 2.52275 2.32106
lowerback 24.8966 0.0511345 -0.468594
upperback 4.32115 0.445376 4.6857
thorax -9.11568 0.300923 5.35237
lowerneck -12.7882 -2.35515 -3.23795
upperneck 10.4926 -2.37943 -1.51884
head 5.27693 -1.40189 -0.147173
rclavicle 2.26615e-014 -1.43125e-014
rhumerus -49.1877 -34.9462 -38.6173
rradius 91.9331
rwrist -54.4712
rhand 13.059 -2.9455
rfingers 7.12502
rthumb 38.0216 -28.7389
lclavicle 2.26615e-014 -1.43125e-014
lhumerus -58.4989 18.457 67.4721
lradius 40.7395
lwrist 12.5099
lhand -10.2911 53.1149
lfingers 7.12502
lthumb 15.7033 82.4977
rfemur -22.8429 -6.43069 20.4816
rtibia 35.4349
rfoot -3.49675 -9.75654
rtoes 19.8746
lfemur 4.62153 -0.974117 -20.6818
ltibia 45.7738
lfoot 15.2958 -19.7556
ltoes -12.8084
